<svg width="25" height="20" viewBox="0 0 25 20" fill="none" xmlns="http://www.w3.org/2000/svg">
<rect x="0.5" y="0.5" width="24" height="19" fill="#F19B9B" fill-opacity="0.5" stroke="black"/>
<path d="M17.5714 3.875H14.3571L14.1054 3.36368C14.052 3.25436 13.9699 3.16241 13.8681 3.09816C13.7664 3.03391 13.6491 2.99992 13.5295 3H10.4679C10.3485 2.99954 10.2314 3.0334 10.13 3.09772C10.0287 3.16204 9.94708 3.25421 9.89464 3.36368L9.64286 3.875H6.42857C6.31491 3.875 6.2059 3.9211 6.12553 4.00315C6.04515 4.08519 6 4.19647 6 4.3125V5.1875C6 5.30354 6.04515 5.41482 6.12553 5.49686C6.2059 5.57891 6.31491 5.625 6.42857 5.625H17.5714C17.6851 5.625 17.7941 5.57891 17.8745 5.49686C17.9548 5.41482 18 5.30354 18 5.1875V4.3125C18 4.19647 17.9548 4.08519 17.8745 4.00315C17.7941 3.9211 17.6851 3.875 17.5714 3.875ZM7.425 15.7695C7.44544 16.1027 7.58951 16.4155 7.82787 16.6441C8.06624 16.8727 8.38098 17 8.70804 17H15.292C15.619 17 15.9338 16.8727 16.1721 16.6441C16.4105 16.4155 16.5546 16.1027 16.575 15.7695L17.1429 6.5H6.85714L7.425 15.7695Z" fill="black"/>
</svg>
